<svg width="202" height="30" viewBox="0 0 202 30" fill="none" xmlns="http://www.w3.org/2000/svg">
<rect x="1" y="1" width="200" height="27.883" rx="13.9415" fill="#D9D9D9" stroke="black" stroke-width="2"/>
<path d="M80.2813 19.125C79.7396 19.125 79.2643 18.9961 78.8555 18.7383C78.4492 18.4805 78.1315 18.1198 77.9023 17.6562C77.6758 17.1927 77.5625 16.651 77.5625 16.0312C77.5625 15.4062 77.6758 14.8607 77.9023 14.3945C78.1315 13.9284 78.4492 13.5664 78.8555 13.3086C79.2643 13.0508 79.7396 12.9219 80.2813 12.9219C80.8229 12.9219 81.2969 13.0508 81.7031 13.3086C82.112 13.5664 82.4297 13.9284 82.6563 14.3945C82.8854 14.8607 83 15.4062 83 16.0312C83 16.651 82.8854 17.1927 82.6563 17.6562C82.4297 18.1198 82.112 18.4805 81.7031 18.7383C81.2969 18.9961 80.8229 19.125 80.2813 19.125ZM80.2813 18.2969C80.6927 18.2969 81.0312 18.1914 81.2969 17.9805C81.5625 17.7695 81.7591 17.4922 81.8867 17.1484C82.0143 16.8047 82.0781 16.4323 82.0781 16.0312C82.0781 15.6302 82.0143 15.2565 81.8867 14.9102C81.7591 14.5638 81.5625 14.2839 81.2969 14.0703C81.0312 13.8568 80.6927 13.75 80.2813 13.75C79.8698 13.75 79.5313 13.8568 79.2656 14.0703C79 14.2839 78.8034 14.5638 78.6758 14.9102C78.5482 15.2565 78.4844 15.6302 78.4844 16.0312C78.4844 16.4323 78.5482 16.8047 78.6758 17.1484C78.8034 17.4922 79 17.7695 79.2656 17.9805C79.5313 18.1914 79.8698 18.2969 80.2813 18.2969ZM85.3291 15.3906V19H84.4072V13H85.2979V13.9375H85.376C85.5166 13.6328 85.7301 13.388 86.0166 13.2031C86.3031 13.0156 86.6729 12.9219 87.126 12.9219C87.5322 12.9219 87.8877 13.0052 88.1924 13.1719C88.4971 13.3359 88.734 13.5859 88.9033 13.9219C89.0726 14.2552 89.1572 14.6771 89.1572 15.1875V19H88.2354V15.25C88.2354 14.7786 88.113 14.4115 87.8682 14.1484C87.6234 13.8828 87.2874 13.75 86.8604 13.75C86.5661 13.75 86.3031 13.8138 86.0713 13.9414C85.8421 14.069 85.6611 14.2552 85.5283 14.5C85.3955 14.7448 85.3291 15.0417 85.3291 15.3906ZM93.9355 19V13H94.8262V13.9375H94.9043C95.0293 13.6172 95.2311 13.3685 95.5098 13.1914C95.7884 13.0117 96.123 12.9219 96.5137 12.9219C96.9095 12.9219 97.2389 13.0117 97.502 13.1914C97.7676 13.3685 97.9746 13.6172 98.123 13.9375H98.1855C98.3392 13.6276 98.5697 13.3815 98.877 13.1992C99.1842 13.0143 99.5527 12.9219 99.9824 12.9219C100.519 12.9219 100.958 13.0898 101.299 13.4258C101.64 13.7591 101.811 14.2786 101.811 14.9844V19H100.889V14.9844C100.889 14.5417 100.768 14.2253 100.525 14.0352C100.283 13.8451 99.998 13.75 99.6699 13.75C99.248 13.75 98.9212 13.8776 98.6895 14.1328C98.4577 14.3854 98.3418 14.7057 98.3418 15.0937V19H97.4043V14.8906C97.4043 14.5495 97.2936 14.2747 97.0723 14.0664C96.8509 13.8555 96.5658 13.75 96.2168 13.75C95.9772 13.75 95.7533 13.8138 95.5449 13.9414C95.3392 14.069 95.1725 14.2461 95.0449 14.4727C94.9199 14.6966 94.8574 14.9557 94.8574 15.25V19H93.9355ZM107.277 16.5469V13H108.199V19H107.277V17.9844H107.215C107.074 18.2891 106.855 18.5482 106.559 18.7617C106.262 18.9727 105.887 19.0781 105.434 19.0781C105.059 19.0781 104.725 18.9961 104.434 18.832C104.142 18.6654 103.913 18.4154 103.746 18.082C103.579 17.7461 103.496 17.3229 103.496 16.8125V13H104.418V16.75C104.418 17.1875 104.54 17.5365 104.785 17.7969C105.033 18.0573 105.348 18.1875 105.73 18.1875C105.96 18.1875 106.193 18.1289 106.43 18.0117C106.669 17.8945 106.87 17.7148 107.031 17.4727C107.195 17.2305 107.277 16.9219 107.277 16.5469ZM114.138 14.3437L113.31 14.5781C113.257 14.4401 113.181 14.306 113.079 14.1758C112.98 14.043 112.845 13.9336 112.673 13.8477C112.501 13.7617 112.281 13.7187 112.013 13.7187C111.646 13.7187 111.34 13.8034 111.095 13.9727C110.853 14.1393 110.731 14.3516 110.731 14.6094C110.731 14.8385 110.815 15.0195 110.981 15.1523C111.148 15.2852 111.409 15.3958 111.763 15.4844L112.653 15.7031C113.19 15.8333 113.59 16.0326 113.853 16.3008C114.116 16.5664 114.247 16.9089 114.247 17.3281C114.247 17.6719 114.148 17.9792 113.95 18.25C113.755 18.5208 113.481 18.7344 113.13 18.8906C112.778 19.0469 112.369 19.125 111.903 19.125C111.291 19.125 110.785 18.9922 110.384 18.7266C109.983 18.4609 109.729 18.0729 109.622 17.5625L110.497 17.3437C110.58 17.6667 110.738 17.9089 110.97 18.0703C111.204 18.2318 111.51 18.3125 111.888 18.3125C112.317 18.3125 112.659 18.2214 112.911 18.0391C113.166 17.8542 113.294 17.6328 113.294 17.375C113.294 17.1667 113.221 16.9922 113.075 16.8516C112.929 16.7083 112.705 16.6016 112.403 16.5312L111.403 16.2969C110.854 16.1667 110.45 15.9648 110.192 15.6914C109.937 15.4154 109.81 15.0703 109.81 14.6562C109.81 14.3177 109.905 14.0182 110.095 13.7578C110.287 13.4974 110.549 13.293 110.88 13.1445C111.213 12.9961 111.591 12.9219 112.013 12.9219C112.606 12.9219 113.073 13.0521 113.411 13.3125C113.752 13.5729 113.994 13.9167 114.138 14.3437ZM115.635 19V13H116.557V19H115.635ZM116.104 12C115.924 12 115.769 11.9388 115.639 11.8164C115.511 11.694 115.447 11.5469 115.447 11.375C115.447 11.2031 115.511 11.056 115.639 10.9336C115.769 10.8112 115.924 10.75 116.104 10.75C116.283 10.75 116.437 10.8112 116.564 10.9336C116.695 11.056 116.76 11.2031 116.76 11.375C116.76 11.5469 116.695 11.694 116.564 11.8164C116.437 11.9388 116.283 12 116.104 12ZM120.683 19.125C120.12 19.125 119.636 18.9922 119.229 18.7266C118.823 18.4609 118.511 18.0951 118.292 17.6289C118.073 17.1628 117.964 16.6302 117.964 16.0312C117.964 15.4219 118.076 14.8841 118.3 14.418C118.526 13.9492 118.841 13.5833 119.245 13.3203C119.651 13.0547 120.125 12.9219 120.667 12.9219C121.089 12.9219 121.469 13 121.808 13.1562C122.146 13.3125 122.424 13.5312 122.64 13.8125C122.856 14.0937 122.99 14.4219 123.042 14.7969H122.12C122.05 14.5234 121.894 14.2812 121.651 14.0703C121.412 13.8568 121.089 13.75 120.683 13.75C120.323 13.75 120.008 13.8437 119.737 14.0312C119.469 14.2161 119.259 14.4779 119.108 14.8164C118.96 15.1523 118.886 15.5469 118.886 16C118.886 16.4635 118.959 16.8672 119.104 17.2109C119.253 17.5547 119.461 17.8216 119.729 18.0117C120 18.2018 120.318 18.2969 120.683 18.2969C120.922 18.2969 121.14 18.2552 121.335 18.1719C121.53 18.0885 121.696 17.9688 121.831 17.8125C121.966 17.6562 122.063 17.4687 122.12 17.25H123.042C122.99 17.6042 122.861 17.9232 122.655 18.207C122.452 18.4883 122.183 18.7122 121.847 18.8789C121.513 19.043 121.125 19.125 120.683 19.125Z" fill="black"/>
</svg>
