<svg width="202" height="30" viewBox="0 0 202 30" fill="none" xmlns="http://www.w3.org/2000/svg">
<rect x="1" y="1" width="200" height="27.883" rx="13.9415" fill="#D9D9D9" stroke="black" stroke-width="2"/>
<path d="M90.9688 19V11H95.7969V11.8594H91.9375V14.5625H95.5469V15.4219H91.9375V18.1406H95.8594V19H90.9688ZM98.1055 13L99.543 15.4531L100.98 13H102.043L100.105 16L102.043 19H100.98L99.543 16.6719L98.1055 19H97.043L98.9492 16L97.043 13H98.1055ZM103.358 19V13H104.28V19H103.358ZM103.827 12C103.647 12 103.493 11.9388 103.362 11.8164C103.235 11.694 103.171 11.5469 103.171 11.375C103.171 11.2031 103.235 11.056 103.362 10.9336C103.493 10.8112 103.647 10.75 103.827 10.75C104.007 10.75 104.16 10.8112 104.288 10.9336C104.418 11.056 104.483 11.2031 104.483 11.375C104.483 11.5469 104.418 11.694 104.288 11.8164C104.16 11.9388 104.007 12 103.827 12ZM108.578 13V13.7812H105.469V13H108.578ZM106.375 11.5625H107.297V17.2812C107.297 17.5417 107.335 17.737 107.41 17.8672C107.488 17.9948 107.587 18.0807 107.707 18.125C107.829 18.1667 107.958 18.1875 108.094 18.1875C108.195 18.1875 108.279 18.1823 108.344 18.1719C108.409 18.1589 108.461 18.1484 108.5 18.1406L108.688 18.9687C108.625 18.9922 108.538 19.0156 108.426 19.0391C108.314 19.0651 108.172 19.0781 108 19.0781C107.74 19.0781 107.484 19.0221 107.234 18.9102C106.987 18.7982 106.781 18.6276 106.617 18.3984C106.456 18.1693 106.375 17.8802 106.375 17.5312V11.5625Z" fill="black"/>
</svg>
