<svg width="202" height="30" viewBox="0 0 202 30" fill="none" xmlns="http://www.w3.org/2000/svg">
<rect x="1" y="1" width="200" height="27.883" rx="13.9415" fill="#D9D9D9" stroke="black" stroke-width="2"/>
<path d="M63.5313 11.8594V11H69.5312V11.8594H67.0156V19H66.0469V11.8594H63.5313ZM73.8662 16.5469V13H74.7881V19H73.8662V17.9844H73.8037C73.6631 18.2891 73.4443 18.5482 73.1475 18.7617C72.8506 18.9727 72.4756 19.0781 72.0225 19.0781C71.6475 19.0781 71.3141 18.9961 71.0225 18.832C70.7308 18.6654 70.5016 18.4154 70.335 18.082C70.1683 17.7461 70.085 17.3229 70.085 16.8125V13H71.0068V16.75C71.0068 17.1875 71.1292 17.5365 71.374 17.7969C71.6214 18.0573 71.9365 18.1875 72.3193 18.1875C72.5485 18.1875 72.7816 18.1289 73.0186 18.0117C73.2581 17.8945 73.4587 17.7148 73.6201 17.4727C73.7842 17.2305 73.8662 16.9219 73.8662 16.5469ZM76.4766 19V13H77.3672V13.9062H77.4297C77.5391 13.6094 77.737 13.3685 78.0234 13.1836C78.3099 12.9987 78.6328 12.9062 78.9922 12.9062C79.0599 12.9062 79.1445 12.9076 79.2461 12.9102C79.3477 12.9128 79.4245 12.9167 79.4766 12.9219V13.8594C79.4453 13.8516 79.3737 13.8398 79.2617 13.8242C79.1523 13.806 79.0365 13.7969 78.9141 13.7969C78.6224 13.7969 78.362 13.8581 78.1328 13.9805C77.9063 14.1003 77.7266 14.2669 77.5938 14.4805C77.4635 14.6914 77.3984 14.9323 77.3984 15.2031V19H76.4766ZM81.4912 15.3906V19H80.5693V13H81.46V13.9375H81.5381C81.6787 13.6328 81.8923 13.388 82.1787 13.2031C82.4652 13.0156 82.835 12.9219 83.2881 12.9219C83.6943 12.9219 84.0498 13.0052 84.3545 13.1719C84.6592 13.3359 84.8962 13.5859 85.0654 13.9219C85.2347 14.2552 85.3193 14.6771 85.3193 15.1875V19H84.3975V15.25C84.3975 14.7786 84.2751 14.4115 84.0303 14.1484C83.7855 13.8828 83.4495 13.75 83.0225 13.75C82.7282 13.75 82.4652 13.8138 82.2334 13.9414C82.0042 14.069 81.8232 14.2552 81.6904 14.5C81.5576 14.7448 81.4912 15.0417 81.4912 15.3906ZM92.5352 19.125C91.9935 19.125 91.5182 18.9961 91.1094 18.7383C90.7031 18.4805 90.3854 18.1198 90.1562 17.6562C89.9297 17.1927 89.8164 16.651 89.8164 16.0312C89.8164 15.4062 89.9297 14.8607 90.1562 14.3945C90.3854 13.9284 90.7031 13.5664 91.1094 13.3086C91.5182 13.0508 91.9935 12.9219 92.5352 12.9219C93.0768 12.9219 93.5508 13.0508 93.957 13.3086C94.3659 13.5664 94.6836 13.9284 94.9102 14.3945C95.1393 14.8607 95.2539 15.4062 95.2539 16.0312C95.2539 16.651 95.1393 17.1927 94.9102 17.6562C94.6836 18.1198 94.3659 18.4805 93.957 18.7383C93.5508 18.9961 93.0768 19.125 92.5352 19.125ZM92.5352 18.2969C92.9466 18.2969 93.2852 18.1914 93.5508 17.9805C93.8164 17.7695 94.013 17.4922 94.1406 17.1484C94.2682 16.8047 94.332 16.4323 94.332 16.0312C94.332 15.6302 94.2682 15.2565 94.1406 14.9102C94.013 14.5638 93.8164 14.2839 93.5508 14.0703C93.2852 13.8568 92.9466 13.75 92.5352 13.75C92.1237 13.75 91.7852 13.8568 91.5195 14.0703C91.2539 14.2839 91.0573 14.5638 90.9297 14.9102C90.8021 15.2565 90.7383 15.6302 90.7383 16.0312C90.7383 16.4323 90.8021 16.8047 90.9297 17.1484C91.0573 17.4922 91.2539 17.7695 91.5195 17.9805C91.7852 18.1914 92.1237 18.2969 92.5352 18.2969ZM99.333 13V13.7812H96.0986V13H99.333ZM97.0674 19V12.1719C97.0674 11.8281 97.1481 11.5417 97.3096 11.3125C97.471 11.0833 97.6807 10.9115 97.9385 10.7969C98.1963 10.6823 98.4684 10.625 98.7549 10.625C98.9814 10.625 99.1663 10.6432 99.3096 10.6797C99.4528 10.7161 99.5596 10.75 99.6299 10.7812L99.3643 11.5781C99.3174 11.5625 99.2523 11.543 99.1689 11.5195C99.0882 11.4961 98.9814 11.4844 98.8486 11.4844C98.5439 11.4844 98.3239 11.5612 98.1885 11.7148C98.0557 11.8685 97.9893 12.0937 97.9893 12.3906V19H97.0674ZM103.297 13V13.7812H100.063V13H103.297ZM101.031 19V12.1719C101.031 11.8281 101.112 11.5417 101.273 11.3125C101.435 11.0833 101.645 10.9115 101.902 10.7969C102.16 10.6823 102.432 10.625 102.719 10.625C102.945 10.625 103.13 10.6432 103.273 10.6797C103.417 10.7161 103.523 10.75 103.594 10.7812L103.328 11.5781C103.281 11.5625 103.216 11.543 103.133 11.5195C103.052 11.4961 102.945 11.4844 102.813 11.4844C102.508 11.4844 102.288 11.5612 102.152 11.7148C102.02 11.8685 101.953 12.0937 101.953 12.3906V19H101.031ZM107.683 19V13H108.573V13.9375H108.651C108.776 13.6172 108.978 13.3685 109.257 13.1914C109.535 13.0117 109.87 12.9219 110.261 12.9219C110.657 12.9219 110.986 13.0117 111.249 13.1914C111.515 13.3685 111.722 13.6172 111.87 13.9375H111.933C112.086 13.6276 112.317 13.3815 112.624 13.1992C112.931 13.0143 113.3 12.9219 113.729 12.9219C114.266 12.9219 114.705 13.0898 115.046 13.4258C115.387 13.7591 115.558 14.2786 115.558 14.9844V19H114.636V14.9844C114.636 14.5417 114.515 14.2253 114.272 14.0352C114.03 13.8451 113.745 13.75 113.417 13.75C112.995 13.75 112.668 13.8776 112.437 14.1328C112.205 14.3854 112.089 14.7057 112.089 15.0937V19H111.151V14.8906C111.151 14.5495 111.041 14.2747 110.819 14.0664C110.598 13.8555 110.313 13.75 109.964 13.75C109.724 13.75 109.5 13.8138 109.292 13.9414C109.086 14.069 108.92 14.2461 108.792 14.4727C108.667 14.6966 108.604 14.9557 108.604 15.25V19H107.683ZM121.024 16.5469V13H121.946V19H121.024V17.9844H120.962C120.821 18.2891 120.603 18.5482 120.306 18.7617C120.009 18.9727 119.634 19.0781 119.181 19.0781C118.806 19.0781 118.472 18.9961 118.181 18.832C117.889 18.6654 117.66 18.4154 117.493 18.082C117.326 17.7461 117.243 17.3229 117.243 16.8125V13H118.165V16.75C118.165 17.1875 118.287 17.5365 118.532 17.7969C118.78 18.0573 119.095 18.1875 119.478 18.1875C119.707 18.1875 119.94 18.1289 120.177 18.0117C120.416 17.8945 120.617 17.7148 120.778 17.4727C120.942 17.2305 121.024 16.9219 121.024 16.5469ZM127.885 14.3437L127.057 14.5781C127.005 14.4401 126.928 14.306 126.826 14.1758C126.727 14.043 126.592 13.9336 126.42 13.8477C126.248 13.7617 126.028 13.7187 125.76 13.7187C125.393 13.7187 125.087 13.8034 124.842 13.9727C124.6 14.1393 124.479 14.3516 124.479 14.6094C124.479 14.8385 124.562 15.0195 124.729 15.1523C124.895 15.2852 125.156 15.3958 125.51 15.4844L126.4 15.7031C126.937 15.8333 127.337 16.0326 127.6 16.3008C127.863 16.5664 127.994 16.9089 127.994 17.3281C127.994 17.6719 127.895 17.9792 127.697 18.25C127.502 18.5208 127.229 18.7344 126.877 18.8906C126.525 19.0469 126.117 19.125 125.65 19.125C125.038 19.125 124.532 18.9922 124.131 18.7266C123.73 18.4609 123.476 18.0729 123.369 17.5625L124.244 17.3437C124.327 17.6667 124.485 17.9089 124.717 18.0703C124.951 18.2318 125.257 18.3125 125.635 18.3125C126.064 18.3125 126.406 18.2214 126.658 18.0391C126.913 17.8542 127.041 17.6328 127.041 17.375C127.041 17.1667 126.968 16.9922 126.822 16.8516C126.676 16.7083 126.452 16.6016 126.15 16.5312L125.15 16.2969C124.601 16.1667 124.197 15.9648 123.939 15.6914C123.684 15.4154 123.557 15.0703 123.557 14.6562C123.557 14.3177 123.652 14.0182 123.842 13.7578C124.035 13.4974 124.296 13.293 124.627 13.1445C124.96 12.9961 125.338 12.9219 125.76 12.9219C126.354 12.9219 126.82 13.0521 127.158 13.3125C127.499 13.5729 127.742 13.9167 127.885 14.3437ZM129.382 19V13H130.304V19H129.382ZM129.851 12C129.671 12 129.516 11.9388 129.386 11.8164C129.258 11.694 129.194 11.5469 129.194 11.375C129.194 11.2031 129.258 11.056 129.386 10.9336C129.516 10.8112 129.671 10.75 129.851 10.75C130.03 10.75 130.184 10.8112 130.312 10.9336C130.442 11.056 130.507 11.2031 130.507 11.375C130.507 11.5469 130.442 11.694 130.312 11.8164C130.184 11.9388 130.03 12 129.851 12ZM134.43 19.125C133.867 19.125 133.383 18.9922 132.977 18.7266C132.57 18.4609 132.258 18.0951 132.039 17.6289C131.82 17.1628 131.711 16.6302 131.711 16.0312C131.711 15.4219 131.823 14.8841 132.047 14.418C132.273 13.9492 132.589 13.5833 132.992 13.3203C133.398 13.0547 133.872 12.9219 134.414 12.9219C134.836 12.9219 135.216 13 135.555 13.1562C135.893 13.3125 136.171 13.5312 136.387 13.8125C136.603 14.0937 136.737 14.4219 136.789 14.7969H135.867C135.797 14.5234 135.641 14.2812 135.398 14.0703C135.159 13.8568 134.836 13.75 134.43 13.75C134.07 13.75 133.755 13.8437 133.484 14.0312C133.216 14.2161 133.007 14.4779 132.855 14.8164C132.707 15.1523 132.633 15.5469 132.633 16C132.633 16.4635 132.706 16.8672 132.852 17.2109C133 17.5547 133.208 17.8216 133.477 18.0117C133.747 18.2018 134.065 18.2969 134.43 18.2969C134.669 18.2969 134.887 18.2552 135.082 18.1719C135.277 18.0885 135.443 17.9688 135.578 17.8125C135.714 17.6562 135.81 17.4687 135.867 17.25H136.789C136.737 17.6042 136.608 17.9232 136.402 18.207C136.199 18.4883 135.93 18.7122 135.594 18.8789C135.26 19.043 134.872 19.125 134.43 19.125Z" fill="black"/>
</svg>
