<svg width="202" height="30" viewBox="0 0 202 30" fill="none" xmlns="http://www.w3.org/2000/svg">
<rect x="1" y="1" width="200" height="27.883" rx="13.9415" fill="#D9D9D9" stroke="black" stroke-width="2"/>
<path d="M75.3438 13C75.2969 12.6042 75.1068 12.2969 74.7734 12.0781C74.4401 11.8594 74.0313 11.75 73.5469 11.75C73.1927 11.75 72.8828 11.8073 72.6172 11.9219C72.3542 12.0365 72.1484 12.194 72 12.3945C71.8542 12.5951 71.7813 12.8229 71.7813 13.0781C71.7813 13.2917 71.832 13.4753 71.9336 13.6289C72.0378 13.7799 72.1706 13.9062 72.332 14.0078C72.4935 14.1068 72.6628 14.1888 72.8398 14.2539C73.0169 14.3164 73.1797 14.3672 73.3281 14.4062L74.1406 14.625C74.349 14.6797 74.5807 14.7552 74.8359 14.8516C75.0938 14.9479 75.3398 15.0794 75.5742 15.2461C75.8112 15.4102 76.0065 15.6211 76.1602 15.8789C76.3138 16.1367 76.3906 16.4531 76.3906 16.8281C76.3906 17.2604 76.2773 17.651 76.0508 18C75.8268 18.349 75.4987 18.6263 75.0664 18.832C74.6367 19.0378 74.1146 19.1406 73.5 19.1406C72.9271 19.1406 72.431 19.0482 72.0117 18.8633C71.5951 18.6784 71.2669 18.4206 71.0273 18.0898C70.7904 17.7591 70.6563 17.375 70.625 16.9375H71.625C71.651 17.2396 71.7526 17.4896 71.9297 17.6875C72.1094 17.8828 72.3359 18.0286 72.6094 18.125C72.8854 18.2187 73.1823 18.2656 73.5 18.2656C73.8698 18.2656 74.2018 18.2057 74.4961 18.0859C74.7904 17.9635 75.0234 17.7943 75.1953 17.5781C75.3672 17.3594 75.4531 17.1042 75.4531 16.8125C75.4531 16.5469 75.3789 16.3307 75.2305 16.1641C75.082 15.9974 74.8867 15.862 74.6445 15.7578C74.4023 15.6536 74.1406 15.5625 73.8594 15.4844L72.875 15.2031C72.25 15.0234 71.7552 14.7669 71.3906 14.4336C71.026 14.1003 70.8438 13.6641 70.8438 13.125C70.8438 12.6771 70.9648 12.2865 71.207 11.9531C71.4518 11.6172 71.7799 11.3568 72.1914 11.1719C72.6055 10.9844 73.0677 10.8906 73.5781 10.8906C74.0938 10.8906 74.5521 10.9831 74.9531 11.168C75.3542 11.3503 75.6719 11.6003 75.9062 11.918C76.1432 12.2357 76.2682 12.5964 76.2813 13H75.3438ZM80.4678 13V13.7812H77.3584V13H80.4678ZM78.2646 11.5625H79.1865V17.2812C79.1865 17.5417 79.2243 17.737 79.2998 17.8672C79.3779 17.9948 79.4769 18.0807 79.5967 18.125C79.7191 18.1667 79.848 18.1875 79.9834 18.1875C80.085 18.1875 80.1683 18.1823 80.2334 18.1719C80.2985 18.1589 80.3506 18.1484 80.3896 18.1406L80.5771 18.9687C80.5146 18.9922 80.4274 19.0156 80.3154 19.0391C80.2035 19.0651 80.0615 19.0781 79.8896 19.0781C79.6292 19.0781 79.374 19.0221 79.124 18.9102C78.8766 18.7982 78.6709 18.6276 78.5068 18.3984C78.3454 18.1693 78.2646 17.8802 78.2646 17.5312V11.5625ZM83.6201 19.1406C83.2399 19.1406 82.8949 19.069 82.585 18.9258C82.2751 18.7799 82.029 18.5703 81.8467 18.2969C81.6644 18.0208 81.5732 17.6875 81.5732 17.2969C81.5732 16.9531 81.641 16.6745 81.7764 16.4609C81.9118 16.2448 82.0928 16.0755 82.3193 15.9531C82.5459 15.8307 82.7959 15.7396 83.0693 15.6797C83.3454 15.6172 83.6227 15.5677 83.9014 15.5313C84.266 15.4844 84.5615 15.4492 84.7881 15.4258C85.0173 15.3997 85.1839 15.3568 85.2881 15.2969C85.3949 15.237 85.4482 15.1328 85.4482 14.9844V14.9531C85.4482 14.5677 85.3428 14.2682 85.1318 14.0547C84.9235 13.8411 84.6071 13.7344 84.1826 13.7344C83.7425 13.7344 83.3975 13.8307 83.1475 14.0234C82.8975 14.2161 82.7217 14.4219 82.6201 14.6406L81.7451 14.3281C81.9014 13.9635 82.1097 13.6797 82.3701 13.4766C82.6331 13.2708 82.9196 13.1276 83.2295 13.0469C83.542 12.9635 83.8493 12.9219 84.1514 12.9219C84.3441 12.9219 84.5654 12.9453 84.8154 12.9922C85.068 13.0365 85.3115 13.1289 85.5459 13.2695C85.7829 13.4102 85.9795 13.6224 86.1357 13.9062C86.292 14.1901 86.3701 14.5703 86.3701 15.0469V19H85.4482V18.1875H85.4014C85.3389 18.3177 85.2347 18.457 85.0889 18.6055C84.943 18.7539 84.749 18.8802 84.5068 18.9844C84.2646 19.0885 83.9691 19.1406 83.6201 19.1406ZM83.7607 18.3125C84.1253 18.3125 84.4326 18.2409 84.6826 18.0977C84.9352 17.9544 85.1253 17.7695 85.2529 17.543C85.3831 17.3164 85.4482 17.0781 85.4482 16.8281V15.9844C85.4092 16.0312 85.3232 16.0742 85.1904 16.1133C85.0602 16.1497 84.9092 16.1823 84.7373 16.2109C84.568 16.237 84.4027 16.2604 84.2412 16.2812C84.0824 16.2995 83.9535 16.3151 83.8545 16.3281C83.6149 16.3594 83.391 16.4102 83.1826 16.4805C82.9769 16.5482 82.8102 16.651 82.6826 16.7891C82.5576 16.9245 82.4951 17.1094 82.4951 17.3437C82.4951 17.6641 82.6136 17.9062 82.8506 18.0703C83.0902 18.2318 83.3936 18.3125 83.7607 18.3125ZM88.0527 19V13H88.9434V13.9062H89.0059C89.1152 13.6094 89.3132 13.3685 89.5996 13.1836C89.8861 12.9987 90.209 12.9062 90.5684 12.9062C90.6361 12.9062 90.7207 12.9076 90.8223 12.9102C90.9238 12.9128 91.0007 12.9167 91.0527 12.9219V13.8594C91.0215 13.8516 90.9499 13.8398 90.8379 13.8242C90.7285 13.806 90.6126 13.7969 90.4902 13.7969C90.1986 13.7969 89.9382 13.8581 89.709 13.9805C89.4824 14.1003 89.3027 14.2669 89.1699 14.4805C89.0397 14.6914 88.9746 14.9323 88.9746 15.2031V19H88.0527ZM95.1309 13V13.7812H92.0215V13H95.1309ZM92.9277 11.5625H93.8496V17.2812C93.8496 17.5417 93.8874 17.737 93.9629 17.8672C94.041 17.9948 94.14 18.0807 94.2598 18.125C94.3822 18.1667 94.5111 18.1875 94.6465 18.1875C94.748 18.1875 94.8314 18.1823 94.8965 18.1719C94.9616 18.1589 95.0137 18.1484 95.0527 18.1406L95.2402 18.9687C95.1777 18.9922 95.0905 19.0156 94.9785 19.0391C94.8665 19.0651 94.7246 19.0781 94.5527 19.0781C94.2923 19.0781 94.0371 19.0221 93.7871 18.9102C93.5397 18.7982 93.334 18.6276 93.1699 18.3984C93.0085 18.1693 92.9277 17.8802 92.9277 17.5312V11.5625ZM102.033 21.375C101.588 21.375 101.205 21.3177 100.885 21.2031C100.564 21.0911 100.298 20.9427 100.084 20.7578C99.873 20.5755 99.7051 20.3802 99.5801 20.1719L100.314 19.6563C100.398 19.7656 100.503 19.8906 100.631 20.0312C100.758 20.1745 100.933 20.2982 101.154 20.4023C101.378 20.5091 101.671 20.5625 102.033 20.5625C102.518 20.5625 102.917 20.4453 103.232 20.2109C103.548 19.9766 103.705 19.6094 103.705 19.1094V17.8906H103.627C103.559 18 103.463 18.1354 103.338 18.2969C103.215 18.4557 103.038 18.5977 102.807 18.7227C102.577 18.8451 102.268 18.9062 101.877 18.9062C101.393 18.9062 100.958 18.7917 100.572 18.5625C100.189 18.3333 99.8861 18 99.6621 17.5625C99.4408 17.125 99.3301 16.5937 99.3301 15.9687C99.3301 15.3542 99.4382 14.819 99.6543 14.3633C99.8704 13.9049 100.171 13.5508 100.557 13.3008C100.942 13.0482 101.387 12.9219 101.893 12.9219C102.283 12.9219 102.593 12.987 102.822 13.1172C103.054 13.2448 103.231 13.3906 103.354 13.5547C103.479 13.7161 103.575 13.849 103.643 13.9531H103.736V13H104.627V19.1719C104.627 19.6875 104.51 20.1068 104.275 20.4297C104.044 20.7552 103.731 20.9935 103.338 21.1445C102.947 21.2982 102.512 21.375 102.033 21.375ZM102.002 18.0781C102.372 18.0781 102.684 17.9935 102.939 17.8242C103.195 17.6549 103.389 17.4115 103.521 17.0938C103.654 16.776 103.721 16.3958 103.721 15.9531C103.721 15.5208 103.656 15.1393 103.525 14.8086C103.395 14.4779 103.202 14.2187 102.947 14.0312C102.692 13.8437 102.377 13.75 102.002 13.75C101.611 13.75 101.286 13.849 101.025 14.0469C100.768 14.2448 100.574 14.5104 100.443 14.8438C100.316 15.1771 100.252 15.5469 100.252 15.9531C100.252 16.3698 100.317 16.7383 100.447 17.0586C100.58 17.3763 100.775 17.6263 101.033 17.8086C101.294 17.9883 101.617 18.0781 102.002 18.0781ZM108.08 19.1406C107.7 19.1406 107.355 19.069 107.045 18.9258C106.735 18.7799 106.489 18.5703 106.307 18.2969C106.124 18.0208 106.033 17.6875 106.033 17.2969C106.033 16.9531 106.101 16.6745 106.236 16.4609C106.372 16.2448 106.553 16.0755 106.779 15.9531C107.006 15.8307 107.256 15.7396 107.529 15.6797C107.805 15.6172 108.083 15.5677 108.361 15.5313C108.726 15.4844 109.021 15.4492 109.248 15.4258C109.477 15.3997 109.644 15.3568 109.748 15.2969C109.855 15.237 109.908 15.1328 109.908 14.9844V14.9531C109.908 14.5677 109.803 14.2682 109.592 14.0547C109.383 13.8411 109.067 13.7344 108.643 13.7344C108.202 13.7344 107.857 13.8307 107.607 14.0234C107.357 14.2161 107.182 14.4219 107.08 14.6406L106.205 14.3281C106.361 13.9635 106.57 13.6797 106.83 13.4766C107.093 13.2708 107.38 13.1276 107.689 13.0469C108.002 12.9635 108.309 12.9219 108.611 12.9219C108.804 12.9219 109.025 12.9453 109.275 12.9922C109.528 13.0365 109.771 13.1289 110.006 13.2695C110.243 13.4102 110.439 13.6224 110.596 13.9062C110.752 14.1901 110.83 14.5703 110.83 15.0469V19H109.908V18.1875H109.861C109.799 18.3177 109.695 18.457 109.549 18.6055C109.403 18.7539 109.209 18.8802 108.967 18.9844C108.725 19.0885 108.429 19.1406 108.08 19.1406ZM108.221 18.3125C108.585 18.3125 108.893 18.2409 109.143 18.0977C109.395 17.9544 109.585 17.7695 109.713 17.543C109.843 17.3164 109.908 17.0781 109.908 16.8281V15.9844C109.869 16.0312 109.783 16.0742 109.65 16.1133C109.52 16.1497 109.369 16.1823 109.197 16.2109C109.028 16.237 108.863 16.2604 108.701 16.2812C108.542 16.2995 108.413 16.3151 108.314 16.3281C108.075 16.3594 107.851 16.4102 107.643 16.4805C107.437 16.5482 107.27 16.651 107.143 16.7891C107.018 16.9245 106.955 17.1094 106.955 17.3437C106.955 17.6641 107.074 17.9062 107.311 18.0703C107.55 18.2318 107.854 18.3125 108.221 18.3125ZM112.513 19V13H113.403V13.9375H113.481C113.606 13.6172 113.808 13.3685 114.087 13.1914C114.366 13.0117 114.7 12.9219 115.091 12.9219C115.487 12.9219 115.816 13.0117 116.079 13.1914C116.345 13.3685 116.552 13.6172 116.7 13.9375H116.763C116.916 13.6276 117.147 13.3815 117.454 13.1992C117.761 13.0143 118.13 12.9219 118.56 12.9219C119.096 12.9219 119.535 13.0898 119.876 13.4258C120.217 13.7591 120.388 14.2786 120.388 14.9844V19H119.466V14.9844C119.466 14.5417 119.345 14.2253 119.103 14.0352C118.86 13.8451 118.575 13.75 118.247 13.75C117.825 13.75 117.498 13.8776 117.267 14.1328C117.035 14.3854 116.919 14.7057 116.919 15.0937V19H115.981V14.8906C115.981 14.5495 115.871 14.2747 115.649 14.0664C115.428 13.8555 115.143 13.75 114.794 13.75C114.554 13.75 114.33 13.8138 114.122 13.9414C113.916 14.069 113.75 14.2461 113.622 14.4727C113.497 14.6966 113.435 14.9557 113.435 15.25V19H112.513ZM124.589 19.125C124.011 19.125 123.512 18.9974 123.093 18.7422C122.676 18.4844 122.354 18.125 122.128 17.6641C121.904 17.2005 121.792 16.6615 121.792 16.0469C121.792 15.4323 121.904 14.8906 122.128 14.4219C122.354 13.9505 122.67 13.5833 123.073 13.3203C123.479 13.0547 123.953 12.9219 124.495 12.9219C124.808 12.9219 125.116 12.974 125.421 13.0781C125.726 13.1823 126.003 13.3516 126.253 13.5859C126.503 13.8177 126.702 14.125 126.851 14.5078C126.999 14.8906 127.073 15.362 127.073 15.9219V16.3125H122.448V15.5156H126.136C126.136 15.1771 126.068 14.875 125.933 14.6094C125.8 14.3437 125.61 14.1341 125.362 13.9805C125.118 13.8268 124.828 13.75 124.495 13.75C124.128 13.75 123.81 13.8411 123.542 14.0234C123.276 14.2031 123.072 14.4375 122.929 14.7266C122.785 15.0156 122.714 15.3255 122.714 15.6562V16.1875C122.714 16.6406 122.792 17.0247 122.948 17.3398C123.107 17.6523 123.327 17.8906 123.608 18.0547C123.89 18.2161 124.216 18.2969 124.589 18.2969C124.831 18.2969 125.05 18.263 125.245 18.1953C125.443 18.125 125.614 18.0208 125.757 17.8828C125.9 17.7422 126.011 17.5677 126.089 17.3594L126.979 17.6094C126.886 17.9115 126.728 18.1771 126.507 18.4062C126.285 18.6328 126.012 18.8099 125.687 18.9375C125.361 19.0625 124.995 19.125 124.589 19.125Z" fill="black"/>
</svg>
